<?xml version="1.0" encoding="UTF-8"?>
<!DOCTYPE svg PUBLIC "-//W3C//DTD SVG 1.1//EN" "http://www.w3.org/Graphics/SVG/1.1/DTD/svg11.dtd">
<svg xmlns="http://www.w3.org/2000/svg" version="1.1" width="900px" height="843px" style="shape-rendering:geometricPrecision; text-rendering:geometricPrecision; image-rendering:optimizeQuality; fill-rule:evenodd; clip-rule:evenodd" xmlns:xlink="http://www.w3.org/1999/xlink">
<style>
    path {
      fill: black;
    }
    @media (prefers-color-scheme: dark) {
      path {
        fill: white;
      }
    }
</style>
<g><path style="opacity:0.997" fill="#000000" d="M 388.5,50.5 C 418.388,49.215 448.054,52.3816 477.5,60C 514.452,71.2214 541.619,94.0547 559,128.5C 567.796,150.196 569.796,172.529 565,195.5C 560.998,218.494 552.331,239.494 539,258.5C 520.388,285.445 501.388,312.112 482,338.5C 468.933,363.929 472.6,386.596 493,406.5C 530.91,440.415 569.41,473.581 608.5,506C 635.363,530.221 654.863,559.388 667,593.5C 682.801,655.742 667.301,708.575 620.5,752C 601.753,765.866 580.753,774.532 557.5,778C 501.288,785.575 445.955,778.075 391.5,755.5C 390.167,730.167 390.167,704.833 391.5,679.5C 426.904,696.102 463.904,707.602 502.5,714C 529.736,718.473 553.236,711.306 573,692.5C 589.93,669.832 594.264,644.832 586,617.5C 582.861,608.548 578.194,600.548 572,593.5C 561.471,582.637 550.637,572.137 539.5,562C 508.167,535.333 476.833,508.667 445.5,482C 424.465,463.423 409.299,440.923 400,414.5C 393.198,384.503 397.531,356.17 413,329.5C 426.832,305.832 441.165,282.499 456,259.5C 472.33,233.17 479.663,204.503 478,173.5C 472.282,143.537 454.449,125.37 424.5,119C 406.407,115.337 388.074,116.67 369.5,123C 350.247,133.268 338.081,149.102 333,170.5C 330.401,181.357 328.735,192.357 328,203.5C 327.5,392.166 327.333,580.833 327.5,769.5C 298.167,769.5 268.833,769.5 239.5,769.5C 239.333,586.833 239.5,404.166 240,221.5C 240.402,192.54 244.735,164.206 253,136.5C 273.777,90.174 309.277,62.674 359.5,54C 369.303,52.7085 378.969,51.5418 388.5,50.5 Z"/></g>
</svg>
